# xmcd
#
# Track frame offsets:
#	150
#	19555
#	36487
#	55785
#	76362
#	93470
#	115382
#	130097
#	143575
#	159540
#	175445
#	191990
#	208980
#	228612
#	246259
#
# Disc length: 3453 seconds
#
# Revision: 8
# Processed by: cddbd v1.5.2PL0 Copyright (c) Steve Scherf et al.
# Submitted via: EasyCDDAExtractor 15.3.0.1
#
DISCID=d80d7b0f
DTITLE=Ednita Nazario - 15 Grandes Exitos De Ednita Nazario
DYEAR=1997
DGENRE=Latin
TTITLE0=A Que No Le Cuentas
TTITLE1=Antes Del Amor
TTITLE2=Yo Soy La Mujer
TTITLE3=Me Quedo Aqui Abajo
TTITLE4=Ese Muchacho
TTITLE5=Chico Fisico
TTITLE6=Te Amaria
TTITLE7=Amandote
TTITLE8=La Prohibida
TTITLE9=Machismo
TTITLE10=Mi Pequeño Amor
TTITLE11=Que Me Ame Mas
TTITLE12=El Dolor De Tu Presencia
TTITLE13=Tu, Sin Mi
TTITLE14=Alma De Gitana
EXTD=
EXTT0=
EXTT1=
EXTT2=
EXTT3=
EXTT4=
EXTT5=
EXTT6=
EXTT7=
EXTT8=
EXTT9=
EXTT10=
EXTT11=
EXTT12=
EXTT13=
EXTT14=
PLAYORDER=
